<?xml version="1.0" encoding="utf-8"?><svg xmlns="http://www.w3.org/2000/svg" width="31.788" height="31.437" viewBox="0 0 31.788 31.437">
  <g id="_24-hours-support" data-name="24-hours-support" transform="translate(0.001 -1.544)">
    <path id="Path_359" data-name="Path 359" d="M97.471,1.544A12.964,12.964,0,0,0,88.8,4.864,5.427,5.427,0,0,1,89.627,7.6V7.6c.012.44.038.88.076,1.319a9.6,9.6,0,1,1,7.936,15.239c.477.4.969.778,1.476,1.134l0,0,0,0a5.434,5.434,0,0,1,1.647,1.856,13.017,13.017,0,0,0-3.294-25.61Z" transform="translate(-78.7)" fill="#db0037"/>
    <path id="Path_360" data-name="Path 360" d="M18.452,61.593c-1.487-1.187-2.415-1.978-3.742-3.207a2.032,2.032,0,0,0-1.358-.587,1.643,1.643,0,0,0-1.051.37l-.944.795a28.669,28.669,0,0,1-5.575-10.4l1.185-.347a1.855,1.855,0,0,0,1.152-2.127c-.278-2.027-.429-3.034-.6-4.892a1.875,1.875,0,0,0-1.631-1.829c-.142-.014-.283-.021-.424-.021-3.379,0-6.32,3.916-5.232,8.707A33.915,33.915,0,0,0,8.708,63.868a7.981,7.981,0,0,0,5.722,2.62,5.1,5.1,0,0,0,4.644-2.524A1.871,1.871,0,0,0,18.452,61.593Z" transform="translate(0 -33.507)" fill="#db0037"/>
    <path id="Path_361" data-name="Path 361" d="M112.771,81.19a10.476,10.476,0,0,0-1.8,2.006,4.092,4.092,0,0,0-.476,1.142.619.619,0,0,0,.6.765h4.294a.954.954,0,1,0,0-1.908h-1.939l.049-.056c.127-.143.437-.441.922-.885a10.118,10.118,0,0,0,1.05-1.069,4.509,4.509,0,0,0,.659-1.1,3.061,3.061,0,0,0,.214-1.133,2.367,2.367,0,0,0-.762-1.786,2.887,2.887,0,0,0-2.055-.714,3.171,3.171,0,0,0-1.976.609,2.283,2.283,0,0,0-.73,1.005.987.987,0,0,0,.821,1.341,1.009,1.009,0,0,0,1.055-.675.8.8,0,0,1,.174-.3.818.818,0,0,1,.617-.227.827.827,0,0,1,.616.215.867.867,0,0,1,.214.644,1.509,1.509,0,0,1-.285.832A10.35,10.35,0,0,1,112.771,81.19Z" transform="translate(-97.914 -66.388)" fill="#db0037"/>
    <path id="Path_362" data-name="Path 362" d="M169.663,76.451h-.717a.618.618,0,0,0-.511.27l-3.317,4.856a.846.846,0,0,0-.148.479v.787a.619.619,0,0,0,.618.618h2.723v.658a.985.985,0,1,0,1.97,0V83.46h.1a.915.915,0,1,0,0-1.83h-.1V77.069A.619.619,0,0,0,169.663,76.451Zm-1.351,5.179h-1.222l1.222-1.817Z" transform="translate(-146.21 -66.388)" fill="#db0037"/>
  </g>
</svg>
