<?xml version="1.0" encoding="utf-8"?><svg xmlns="http://www.w3.org/2000/svg" xmlns:xlink="http://www.w3.org/1999/xlink" width="126" height="127" viewBox="0 0 126 127"><defs><clipPath id="a"><path d="M0,127V0H90.3V14.695H126V53.529H90.3V127Z" transform="translate(-0.063)" fill="#fff" stroke="#707070" stroke-width="1"/></clipPath></defs><g transform="translate(-957 -2499)"><g transform="translate(957.063 2499)" opacity="0.1" clip-path="url(#a)"><g transform="translate(19.937 24)" fill="none" stroke="#0b3875" stroke-width="4"><circle cx="47" cy="47" r="47" stroke="none"/><circle cx="47" cy="47" r="45" fill="none"/></g></g><path d="M18.167,0A18.167,18.167,0,1,0,36.333,18.167,18.187,18.187,0,0,0,18.167,0ZM28.6,15.1,17.185,26.511a2.569,2.569,0,0,1-3.633,0L7.735,20.695a2.569,2.569,0,1,1,3.633-3.633l4,4,9.6-9.6A2.569,2.569,0,0,1,28.6,15.1Z" transform="translate(1003.667 2552.667)" fill="#002250"/></g></svg>