<?xml version="1.0" encoding="utf-8"?><svg xmlns="http://www.w3.org/2000/svg" xmlns:xlink="http://www.w3.org/1999/xlink" width="126" height="127" viewBox="0 0 126 127"><defs><clipPath id="a"><path d="M0,127V0H90.3V14.695H126V53.529H90.3V127Z" transform="translate(0)" fill="#fff" stroke="#707070" stroke-width="1"/></clipPath></defs><g transform="translate(-231 -2499)"><g transform="translate(231 2499)" opacity="0.1" clip-path="url(#a)"><g transform="translate(20 24)" fill="none" stroke="#0b3875" stroke-width="4"><circle cx="47" cy="47" r="47" stroke="none"/><circle cx="47" cy="47" r="45" fill="none"/></g></g><g transform="translate(283.026 2553.026)"><g transform="translate(19.839)"><path d="M305.209,5.8a2.965,2.965,0,0,0-.874-2.109L301.522.874A3.05,3.05,0,0,0,299.393,0h-.171V5.967h5.987V5.8Z" transform="translate(-299.222)" fill="#002250"/></g><path d="M18.163,20.523a3.992,3.992,0,0,1,.956-1.552l6.734-6.707V7.956H18.864a.967.967,0,0,1-.962-.995V0H2.984A2.987,2.987,0,0,0,0,2.984v27.98a2.987,2.987,0,0,0,2.984,2.984H22.842a3.01,3.01,0,0,0,3.01-2.984V23.541l-1.093,1.066a3.955,3.955,0,0,1-1.546.954l-3.162,1.056-.482.026a2.486,2.486,0,0,1-2.356-3.276ZM4.973,17.9h9.913a.995.995,0,1,1,0,1.989H4.973a.995.995,0,1,1,0-1.989Zm-.995-2.984a.994.994,0,0,1,.995-.995h9.913a.995.995,0,1,1,0,1.989H4.973A.994.994,0,0,1,3.978,14.918Zm0,7.956a.994.994,0,0,1,.995-.995h9.913a.995.995,0,1,1,0,1.989H4.973A.994.994,0,0,1,3.978,22.875Zm14.886,4.973a.995.995,0,1,1,0,1.989H12.9a.995.995,0,1,1,0-1.989ZM4.973,11.935a.995.995,0,0,1,0-1.989H18.864a.995.995,0,1,1,0,1.989Z" fill="#002250"/><g transform="translate(19.073 21.403)"><path d="M288.554,322.808l-.865,2.6a.5.5,0,0,0,.629.629l2.594-.866Z" transform="translate(-287.663 -322.808)" fill="#002250"/></g><g transform="translate(21.139 13.215)"><path d="M325.37,199.307l-6.55,6.55,2.825,2.825,6.55-6.55Z" transform="translate(-318.82 -199.307)" fill="#002250"/></g><g transform="translate(29.095 9.809)"><path d="M443.087,148.5a2.077,2.077,0,0,0-2.822,0l-1.445,1.445,2.824,2.824,1.445-1.445A2,2,0,0,0,443.087,148.5Z" transform="translate(-438.819 -147.949)" fill="#002250"/></g><g transform="translate(33.365 13.168)"><path d="M503.215,198.814h0l.006-.006Z" transform="translate(-503.215 -198.794)" fill="#002250"/><path d="M503.3,198.684l.009-.009Z" transform="translate(-503.297 -198.67)" fill="#002250"/><path d="M503.436,198.606Z" transform="translate(-503.421 -198.601)" fill="#002250"/></g></g></g></svg>