<?xml version="1.0" encoding="utf-8"?><svg xmlns="http://www.w3.org/2000/svg" xmlns:xlink="http://www.w3.org/1999/xlink" width="126" height="127" viewBox="0 0 126 127"><defs><clipPath id="a"><path d="M0,127V0H90.3V14.695H126V53.529H90.3V127Z" transform="translate(-0.268)" fill="#fff" stroke="#707070" stroke-width="1"/></clipPath></defs><g transform="translate(-617 -2499)"><g transform="translate(617.268 2499)" opacity="0.1" clip-path="url(#a)"><g transform="translate(19.732 24)" fill="none" stroke="#0b3875" stroke-width="4"><circle cx="47" cy="47" r="47" stroke="none"/><circle cx="47" cy="47" r="45" fill="none"/></g></g><g transform="translate(661.667 2552.667)"><path d="M223.056,210.18a12.915,12.915,0,0,0-7.083-11.5,17.563,17.563,0,0,1-17.293,17.293,12.88,12.88,0,0,0,18.052,5.293L223,223l-1.734-6.268A12.829,12.829,0,0,0,223.056,210.18Zm0,0" transform="translate(-183.223 -183.223)" fill="#002250"/><path d="M30.42,15.21a15.21,15.21,0,1,0-28.31,7.731L.056,30.363,7.479,28.31A15.213,15.213,0,0,0,30.42,15.21ZM12.876,11.67H10.542a4.668,4.668,0,1,1,7.818,3.445L16.377,16.93v1.82H14.043V15.9l2.741-2.509a2.31,2.31,0,0,0,.76-1.723,2.334,2.334,0,0,0-4.668,0Zm1.167,9.414h2.334v2.334H14.043Zm0,0" fill="#002250"/></g></g></svg>