<svg xmlns="http://www.w3.org/2000/svg" width="16.934" height="16.935" viewBox="0 0 16.934 16.935"><g transform="translate(-0.001)"><g transform="translate(0.001)"><path d="M8.468,0a8.467,8.467,0,1,0,8.467,8.467A8.467,8.467,0,0,0,8.468,0Zm.585,9.5a.571.571,0,0,1-.007.067c0,.017,0,.034-.007.05s-.01.034-.016.051A.6.6,0,0,1,9,9.731s0,.007,0,.01a.581.581,0,0,1-.044.077l0,0a.583.583,0,0,1-.062.075l-.019.018a.561.561,0,0,1-.062.051l-.02.015a.586.586,0,0,1-.088.048l-.02.007a.588.588,0,0,1-.079.024l-.029.006a.583.583,0,0,1-.1.011l-.022,0a.589.589,0,0,1-.1-.011l-.03-.009a.594.594,0,0,1-.088-.03l-.01,0L4.972,8.49a.586.586,0,1,1,.5-1.059L7.883,8.568V3.514a.586.586,0,1,1,1.171,0V9.492h0S9.053,9.5,9.053,9.5Z" transform="translate(-0.001)" fill="#db0037"/></g></g></svg>