<?xml version="1.0" encoding="utf-8"?><svg xmlns="http://www.w3.org/2000/svg" width="25.656" height="30.304" viewBox="0 0 25.656 30.304">
  <g id="doctor" transform="translate(-3.525)">
    <g id="Group_106" data-name="Group 106" transform="translate(3.525 0)">
      <circle id="Ellipse_28" data-name="Ellipse 28" cx="5.669" cy="5.669" r="5.669" transform="translate(7.166)" fill="#db0037"/>
      <path id="Path_370" data-name="Path 370" d="M22.094,20.067h-.071l-.242,3.145a.988.988,0,0,1-.787.892l-1.8.367.444,1.309a.985.985,0,0,1-.056.766s-1.752,3.431-2.336,4.574a1.059,1.059,0,0,1-.859.454.912.912,0,0,1-.9-.454c-.585-1.142-2.337-4.574-2.337-4.574a.988.988,0,0,1-.056-.764l.444-1.309-1.806-.367a.984.984,0,0,1-.786-.89L10.7,20.068h-.071a7.1,7.1,0,0,0-7.1,7.1v7.974a1.99,1.99,0,0,0,1.99,1.99H27.191a1.99,1.99,0,0,0,1.99-1.99V27.151A7.089,7.089,0,0,0,22.094,20.067ZM24.631,33.69h-1.5v1.471a.98.98,0,1,1-1.96,0V33.69H19.7a.98.98,0,1,1,0-1.961h1.472v-1.5a.98.98,0,1,1,1.96,0v1.5h1.5a.98.98,0,1,1,0,1.961Z" transform="translate(-3.525 -6.832)" fill="#db0037"/>
      <path id="Path_371" data-name="Path 371" d="M22.421,22.76l2.174-.442.173-2.252H17.4l.173,2.252,2.174.442a.987.987,0,0,1,.738,1.283l-.669,1.975L21.084,28.5l1.27-2.484-.67-1.975a.988.988,0,0,1,.738-1.283Z" transform="translate(-8.249 -6.832)" fill="#db0037"/>
    </g>
  </g>
</svg>
