<svg xmlns="http://www.w3.org/2000/svg" width="51.335" height="30.6" viewBox="0 0 51.335 30.6"><g transform="translate(0 -98.725)"><path d="M25.667,98.725c-9.808,0-18.7,5.366-25.266,14.082a2.032,2.032,0,0,0,0,2.426c6.563,8.726,15.458,14.092,25.266,14.092s18.7-5.366,25.266-14.082a2.032,2.032,0,0,0,0-2.426C44.37,104.091,35.475,98.725,25.667,98.725Zm.7,26.074a10.8,10.8,0,1,1,10.071-10.071A10.8,10.8,0,0,1,26.371,124.8Zm-.326-4.978a5.814,5.814,0,1,1,5.429-5.429A5.8,5.8,0,0,1,26.045,119.822Z" transform="translate(0 0)" fill="#fff"/></g></svg>