<svg xmlns="http://www.w3.org/2000/svg" width="44.014" height="38.34" viewBox="0 0 44.014 38.34"><g transform="translate(0 -33)"><g transform="translate(0 33)"><path d="M32.323,33c-5.215,0-8.562,3.612-10.316,6.864C20.253,36.611,16.906,33,11.691,33,5.075,33,0,38.368,0,45.488a13.4,13.4,0,0,0,1.057,5.221h9.837l2.223-4.445a1.343,1.343,0,0,1,2.307,0l4,8.009,1.425-2.851a1.343,1.343,0,0,1,2.307,0l1.425,2.851,4-8.009a1.343,1.343,0,0,1,2.307,0l2.223,4.445h9.837a13.4,13.4,0,0,0,1.057-5.221C44.014,38.368,38.939,33,32.323,33Z" transform="translate(0 -33)" fill="#fff"/></g><g transform="translate(2.41 49.724)"><path d="M57.95,231.109A1.29,1.29,0,0,1,56.8,230.4l-1.425-2.851-4,8.009a1.29,1.29,0,0,1-2.307,0L47.634,232.7l-1.425,2.851a1.343,1.343,0,0,1-2.307,0l-4-8.009L38.472,230.4a1.29,1.29,0,0,1-1.153.713H28.037c2.654,4.176,7.434,8.142,13.413,13.188,1.679,1.417,3.464,2.924,5.339,4.55a1.291,1.291,0,0,0,1.69,0c1.875-1.626,3.661-3.133,5.339-4.55,5.979-5.046,10.759-9.012,13.413-13.188Z" transform="translate(-28.037 -227.545)" fill="#fff"/></g></g></svg>