<svg xmlns="http://www.w3.org/2000/svg" width="18.482" height="18.483" viewBox="0 0 18.482 18.483"><g transform="translate(-0.016)"><g transform="translate(0.016 4.562)"><g transform="translate(0)"><path d="M9.257,133.417v-7.049c-.2.018-.4.05-.6.059H2.9a.578.578,0,0,0-.578.578v.578H.594a.578.578,0,0,0-.578.578v3.465a.578.578,0,0,0,.578.578H2.326v.578a.578.578,0,0,0,.578.578h.35l2.322,6.189a1.149,1.149,0,0,0,.85.718,1.131,1.131,0,0,0,1.043-.318l1.387-1.376a1.152,1.152,0,0,0,.213-1.337L7.13,133.358H8.665C8.863,133.367,9.06,133.4,9.257,133.417Z" transform="translate(-0.016 -126.368)" fill="#db0037"/></g></g><g transform="translate(10.412)"><path d="M296.007.28a.408.408,0,0,0-.037-.054.571.571,0,0,0-.241-.185s-.006-.006-.009-.007-.022,0-.034,0A.575.575,0,0,0,295.524,0a.537.537,0,0,0-.112.023.637.637,0,0,0-.065.013.573.573,0,0,0-.253.164s-.012.006-.016.01A12.155,12.155,0,0,1,288.016,4.4v7.382a12.153,12.153,0,0,1,7.063,4.184c0,.006.013.008.018.015a.56.56,0,0,0,.143.111c.017.01.031.025.049.033a.594.594,0,0,0,.236.051.6.6,0,0,0,.2-.033s.006-.006.009-.007a.562.562,0,0,0,.241-.185c.014-.018.024-.035.037-.054a.559.559,0,0,0,.095-.3V.578A.559.559,0,0,0,296.007.28Z" transform="translate(-288.016)" fill="#db0037"/></g></g></svg>