<svg xmlns="http://www.w3.org/2000/svg" width="13.738" height="13.729" viewBox="0 0 13.738 13.729"><g transform="translate(0 -0.188)"><g transform="translate(0 0.188)"><path d="M13.731,11.023a.664.664,0,0,1-.2.582l-1.934,1.92a1.089,1.089,0,0,1-.342.247,1.412,1.412,0,0,1-.414.131l-.087.007q-.073.007-.189.007a6.7,6.7,0,0,1-.894-.095,6.793,6.793,0,0,1-1.512-.465,12.7,12.7,0,0,1-2.029-1.113,15.126,15.126,0,0,1-2.414-2.036,15.937,15.937,0,0,1-1.687-1.92A13.678,13.678,0,0,1,.948,6.594,9.125,9.125,0,0,1,.337,5.184,7.485,7.485,0,0,1,.061,4.093,3.6,3.6,0,0,1,0,3.373q.015-.262.015-.291a1.414,1.414,0,0,1,.131-.414A1.09,1.09,0,0,1,.4,2.326L2.329.392a.641.641,0,0,1,.465-.2A.543.543,0,0,1,3.129.3a1.011,1.011,0,0,1,.247.269L4.933,3.518a.708.708,0,0,1,.073.509.906.906,0,0,1-.247.465l-.713.713a.243.243,0,0,0-.051.095.359.359,0,0,0-.022.109,2.626,2.626,0,0,0,.262.7,6.408,6.408,0,0,0,.538.851A9.447,9.447,0,0,0,5.805,8.114a9.633,9.633,0,0,0,1.163,1.04A6.719,6.719,0,0,0,7.82,9.7a2.261,2.261,0,0,0,.524.211l.182.036a.347.347,0,0,0,.095-.022.243.243,0,0,0,.095-.051l.829-.844a.891.891,0,0,1,.611-.233.76.76,0,0,1,.393.087h.015l2.807,1.658A.732.732,0,0,1,13.731,11.023Z" transform="translate(0 -0.188)" fill="#db0037"/></g></g></svg>