<svg xmlns="http://www.w3.org/2000/svg" width="27.144" height="38.89" viewBox="0 0 27.144 38.89"><path d="M639.249,519.375c1.463-4.471,3.673-11.228-1.192-14.3a9.108,9.108,0,0,0-4.935-1.559,10.752,10.752,0,0,0-4.313,1.071,2.161,2.161,0,0,1-2.678,0,10.749,10.749,0,0,0-4.313-1.071,9.109,9.109,0,0,0-4.936,1.559c-4.866,3.071-2.656,9.828-1.193,14.3a20.94,20.94,0,0,1,.944,3.394,29.119,29.119,0,0,1-.146,4.512c-.211,2.672-.43,5.434.2,7.764a15.528,15.528,0,0,0,4.646,6.93,1.872,1.872,0,0,0,1.1.427c.035,0,.07,0,.105,0a1.88,1.88,0,0,0,1.88-1.88,1.9,1.9,0,0,0-.066-.494c-.161-.946-.98-6.277.255-9.677a8.618,8.618,0,0,1,2.858-4.223,8.617,8.617,0,0,1,2.858,4.223c1.352,3.724.241,9.762.23,9.823a1.879,1.879,0,0,0,3.044,1.8,15.524,15.524,0,0,0,4.647-6.931c.634-2.33.416-5.093.2-7.765a29.157,29.157,0,0,1-.146-4.51A20.952,20.952,0,0,1,639.249,519.375Zm-10.318-3.659H625.74v3.191h-3.391v-3.191h-3.191v-3.391h3.191v-3.191h3.391v3.191h3.192Z" transform="translate(-613.896 -503.516)" fill="#002250"/></svg>